<svg xmlns="http://www.w3.org/2000/svg" width="256" height="256" viewBox="0 0 256 256" fill="none">
  <defs>
    <linearGradient id="g" x1="32" y1="32" x2="224" y2="224" gradientUnits="userSpaceOnUse">
      <stop stop-color="#0EA5A4"/>
      <stop offset="1" stop-color="#2563EB"/>
    </linearGradient>
  </defs>

  <rect x="24" y="24" width="208" height="208" rx="44" fill="url(#g)"/>
  <path d="M128 60c27.6 0 50 22.4 50 50v14.5c0 8.6-3.5 16.9-9.6 23l-40.8 40.8a16 16 0 0 1-22.6 0l-18.4-18.4a16 16 0 0 1 0-22.6l32.7-32.7c3-3 4.7-7.1 4.7-11.4V110c0-5.5-4.5-10-10-10s-10 4.5-10 10v7.2c0 4.2-1.7 8.3-4.7 11.3l-7.8 7.8a16 16 0 0 1-22.6 0l-0.6-0.6a16 16 0 0 1 0-22.6l8.6-8.6A30 30 0 0 0 78 110c0-27.6 22.4-50 50-50Z" fill="white" opacity="0.95"/>

  <circle cx="128" cy="128" r="10" fill="white" opacity="0.95"/>
  <path d="M76 206h104" stroke="white" stroke-width="10" stroke-linecap="round" opacity="0.9"/>
</svg>